<?xml version="1.0" encoding="utf-8"?>
<!-- Generator: Adobe Illustrator 19.2.0, SVG Export Plug-In . SVG Version: 6.00 Build 0)  -->
<svg version="1.0" id="Layer_1" xmlns="http://www.w3.org/2000/svg" xmlns:xlink="http://www.w3.org/1999/xlink" x="0px" y="0px"
	 viewBox="0 0 10 10" style="enable-background:new 0 0 10 10;" xml:space="preserve">
<style type="text/css">
	.st0{fill:#FFFFFF;stroke:#000000;stroke-width:0.1;stroke-miterlimit:10;}
</style>
<path class="st0" d="M5,0C2.239,0,0,2.239,0,5c0,2.761,2.239,5,5,5s5-2.239,5-5C10,2.239,7.761,0,5,0z M4.373,1.485
	C4.535,1.328,4.728,1.25,4.952,1.25c0.224,0,0.415,0.08,0.575,0.239c0.16,0.16,0.239,0.351,0.239,0.575
	c0,0.224-0.078,0.417-0.235,0.58c-0.157,0.163-0.35,0.244-0.58,0.244c-0.115,0-0.222-0.022-0.321-0.067
	C4.532,2.777,4.446,2.717,4.373,2.644C4.299,2.571,4.24,2.484,4.195,2.385C4.151,2.286,4.128,2.179,4.128,2.064
	C4.128,1.834,4.21,1.641,4.373,1.485z M6.485,8.55h-2.97V8.004c0.549,0,0.824-0.144,0.824-0.431V4.661
	c0-0.294-0.275-0.441-0.824-0.441V3.674h2.136v3.899C5.639,7.86,5.916,8.004,6.485,8.004V8.55z"/>
</svg>
